<svg width="24" height="24" viewBox="0 0 24 24" fill="none" xmlns="http://www.w3.org/2000/svg">
<path d="M10.7392 6.04978C10.8408 5.79869 11.0151 5.58366 11.2397 5.43225C11.4643 5.28084 11.729 5.19995 11.9998 5.19995C12.2707 5.19995 12.5354 5.28084 12.76 5.43225C12.9846 5.58366 13.1588 5.79869 13.2604 6.04978C14.2659 6.32629 15.1527 6.92523 15.7848 7.75459C16.4169 8.58395 16.7593 9.59788 16.7593 10.6407V13.8343L18.005 15.7027C18.0733 15.8051 18.1125 15.9241 18.1185 16.0471C18.1245 16.17 18.0969 16.2923 18.0389 16.4009C17.9808 16.5094 17.8944 16.6001 17.7887 16.6634C17.6831 16.7266 17.5624 16.76 17.4393 16.76H14.3558C14.2739 17.3265 13.9907 17.8445 13.558 18.2191C13.1253 18.5937 12.5722 18.8 11.9998 18.8C11.4275 18.8 10.8743 18.5937 10.4416 18.2191C10.009 17.8445 9.72574 17.3265 9.64388 16.76H6.5604C6.43731 16.76 6.31651 16.7266 6.21091 16.6634C6.10531 16.6001 6.01886 16.5094 5.96079 16.4009C5.90272 16.2923 5.8752 16.17 5.88117 16.0471C5.88714 15.9241 5.92638 15.8051 5.9947 15.7027L7.24033 13.8343V10.6407C7.24033 8.44857 8.72257 6.60188 10.7392 6.04978ZM10.7568 16.76C10.8867 17.1826 11.0741 17.4409 11.2762 17.584C11.4485 17.7059 11.7892 17.7713 12.0002 17.7713C12.2112 17.7713 12.5764 17.7313 12.8346 17.5486C13.1623 17.3167 13.2484 16.959 13.3186 16.76H10.7568ZM11.9998 6.85273C11.0982 6.85273 9.93618 7.28174 9.29862 7.91929C8.66106 8.55685 8.30289 9.73901 8.30289 10.6407V14.0403C8.30292 14.1746 8.26317 14.3059 8.18866 14.4177L7.24033 15.7027H16.7593L15.8041 14.4177C15.7298 14.3058 15.6903 14.1745 15.6906 14.0403V10.6407C15.6906 9.73901 15.3324 8.55685 14.6948 7.91929C14.0573 7.28174 12.9015 6.85273 11.9998 6.85273Z" fill="#595959"/>
</svg>
